<?xml version="1.0" encoding="UTF-8" standalone="no"?>
<!-- Created with Inkscape (http://www.inkscape.org/) -->

<svg
   xmlns:dc="http://purl.org/dc/elements/1.1/"
   xmlns:cc="http://creativecommons.org/ns#"
   xmlns:rdf="http://www.w3.org/1999/02/22-rdf-syntax-ns#"
   xmlns:svg="http://www.w3.org/2000/svg"
   xmlns="http://www.w3.org/2000/svg"
   xmlns:sodipodi="http://sodipodi.sourceforge.net/DTD/sodipodi-0.dtd"
   xmlns:inkscape="http://www.inkscape.org/namespaces/inkscape"
   width="64px"
   height="64px"
   id="svg3007"
   version="1.1"
   inkscape:version="0.48.4 r9939"
   sodipodi:docname="New document 2">
  <defs
     id="defs3009">
    <inkscape:path-effect
       effect="spiro"
       id="path-effect4205"
       is_visible="true" />
  </defs>
  <sodipodi:namedview
     id="base"
     pagecolor="#ffffff"
     bordercolor="#666666"
     borderopacity="1.0"
     inkscape:pageopacity="0.0"
     inkscape:pageshadow="2"
     inkscape:zoom="1.9445436"
     inkscape:cx="54.296597"
     inkscape:cy="47.113974"
     inkscape:current-layer="layer1"
     showgrid="true"
     inkscape:document-units="px"
     inkscape:grid-bbox="true"
     inkscape:window-width="1366"
     inkscape:window-height="709"
     inkscape:window-x="0"
     inkscape:window-y="27"
     inkscape:window-maximized="1" />
  <metadata
     id="metadata3012">
    <rdf:RDF>
      <cc:Work
         rdf:about="">
        <dc:format>image/svg+xml</dc:format>
        <dc:type
           rdf:resource="http://purl.org/dc/dcmitype/StillImage" />
        <dc:title></dc:title>
      </cc:Work>
    </rdf:RDF>
  </metadata>
  <g
     id="layer1"
     inkscape:label="Layer 1"
     inkscape:groupmode="layer">
    <rect
       style="fill:#008080;fill-rule:evenodd;stroke:none"
       id="rect2985-64-6"
       width="55.342339"
       height="66.349625"
       x="0.63263476"
       y="0.38369477"
       rx="0" />
    <rect
       style="fill:#ff0000;fill-rule:evenodd;stroke:none"
       id="rect2985-64"
       width="34.061169"
       height="66.383797"
       x="31.160334"
       y="0.35326445"
       rx="0" />
    <path
       style="fill:none;stroke:#000000;stroke-width:0.37926403px;stroke-linecap:butt;stroke-linejoin:miter;stroke-opacity:1"
       d="m 22.657396,58.085872 c -0.157479,-1.12853 -0.157479,-2.278921 0,-3.407451 0.170765,-1.223738 0.544969,-2.456056 1.333349,-3.407451 0.579472,-0.699291 1.356222,-1.213582 2.178562,-1.599009 0.822339,-0.385427 1.695018,-0.649878 2.562241,-0.919547 1.834276,-0.570381 3.659358,-1.169914 5.481552,-1.777791 1.645355,-0.548884 3.290158,-1.105246 4.888949,-1.777803 1.548418,-0.651367 3.049634,-1.410036 4.592648,-2.074102 1.78817,-0.769574 3.637475,-1.41456 5.333401,-2.3704 1.537564,-0.866586 2.931117,-1.9811 4.1482,-3.259296 1.043505,-1.095903 1.956726,-2.3092 2.814851,-3.555606 1.118521,-1.624625 2.155338,-3.326334 2.814849,-5.185242 0.509347,-1.435653 0.785579,-2.942072 1.037052,-4.444502 0.27116,-1.620053 0.516268,-3.248141 0.592599,-4.888956 0.03444,-0.740215 0.03444,-1.482032 0,-2.222247 l -11.111253,0 c -0.02457,1.539501 -0.173362,3.077002 -0.444446,4.592647 -0.292537,1.635591 -0.732149,3.257828 -1.481501,4.740801 -0.655061,1.296369 -1.548975,2.47989 -2.666699,3.407451 -1.263673,1.048678 -2.777192,1.746906 -4.296353,2.3704 -1.663041,0.682545 -3.355723,1.289909 -5.0371,1.925947 -1.671335,0.63224 -3.332231,1.293091 -5.019126,1.882559 -1.587521,0.554743 -3.198256,1.046346 -4.758772,1.673047 -1.169142,0.469526 -2.308083,1.014236 -3.407453,1.629648 l 0.148151,-29.6299989 -11.259402,0 0,48.5932009 11.555701,-0.296299"
       id="path4203"
       inkscape:path-effect="#path-effect4205"
       inkscape:original-d="m 22.657396,58.085872 c 0,0 -0.210594,-2.291329 0,-3.407451 0.226149,-1.198534 0.522052,-2.496727 1.333349,-3.407451 1.190276,-1.33615 4.740803,-2.518556 4.740803,-2.518556 0,0 3.665065,-1.15317 5.481552,-1.777791 1.63981,-0.563865 3.2828,-1.12418 4.888949,-1.777803 1.555862,-0.633158 3.059709,-1.387312 4.592648,-2.074102 1.775433,-0.79544 3.66685,-1.366663 5.333401,-2.3704 1.506372,-0.90726 2.902481,-2.018149 4.1482,-3.259296 1.070856,-1.066937 1.85668,-2.104197 2.814851,-3.555606 0.958173,-1.451397 2.195127,-3.555078 2.814849,-5.185242 0.619721,-1.630164 0.772292,-2.946426 1.037052,-4.444502 0.285696,-1.616529 0.493655,-3.250365 0.592599,-4.888956 0.04465,-0.7394 0,-2.222247 0,-2.222247 l -11.111253,0 c 0,0 -0.13937,3.085172 -0.444446,4.592647 -0.328402,1.622733 -0.711879,3.274921 -1.481501,4.740801 -0.670451,1.277003 -1.568658,2.472295 -2.666699,3.407451 -1.245226,1.060513 -2.812836,1.681608 -4.296353,2.3704 -1.630409,0.757004 -3.344517,1.320599 -5.0371,1.925947 -1.764506,0.631082 -3.339659,1.272446 -5.019126,1.882559 -1.580381,0.574122 -3.297502,1.032187 -4.758772,1.673047 -1.153022,0.505677 -3.407453,1.629648 -3.407453,1.629648 l 0.148151,-29.6299989 -11.259402,0 0,48.5932009 z"
       inkscape:connector-curvature="0"
       sodipodi:nodetypes="csscsssssssssccsssssssccccc" />
  </g>
</svg>
